<svg id="Layer_1" data-name="Layer 1" xmlns="http://www.w3.org/2000/svg" viewBox="0 0 50 50"><path d="M29.87,3a1,1,0,0,0-.32.09,7.85,7.85,0,0,0-2,1.94l0,0A9,9,0,0,0,26,10a10,10,0,0,0,.77,3.89,12,12,0,0,0,6.76,6.48l.38.13.18.06.11,0a4.27,4.27,0,0,0,.48.13A14.59,14.59,0,0,0,37,21h.37a9,9,0,0,0,8.32-5.16l.16-.29h0a1,1,0,0,0-.27-1.39,1,1,0,0,0-1.38.26h0c-1.46,2.15-4,2.81-7.42,2a7.3,7.3,0,0,1-.79-.26,7.45,7.45,0,0,1-1-.4,10.12,10.12,0,0,1-1.7-1.06c-3-2.36-4.23-7.28-2.45-10.12a1,1,0,0,0-.11-1.2A1,1,0,0,0,29.87,3ZM21,5a1,1,0,0,0-.65.23,23.44,23.44,0,0,0-3.12,3.32l0,0c-2.73,4-2.94,9.64-.52,14.43A18.53,18.53,0,0,0,18,25.17l.14.2a9.82,9.82,0,0,0,1.37,1.7c.2.22.4.43.61.64l.09.1.09.08.63.6h0s0,0,.06.06c.24.22.49.42.82.68l.09.07c.26.21.52.4.79.59l.08.06.29.19.09.06.11.07c.2.14.39.26.67.42a5.66,5.66,0,0,0,.5.28l.25.14.3.16.1,0,.62.3.31.14.68.27.12,0,.11,0,.57.19.44.15a5.7,5.7,0,0,0,.75.21,24.78,24.78,0,0,0,3.94.34H33A14.63,14.63,0,0,0,47,23.28a1,1,0,0,0-.53-1.19,1,1,0,0,0-1.26.35c-2.79,4.08-8.08,5.81-13.47,4.39-.25-.06-.49-.13-.79-.23l-.18-.06-.54-.19-.28-.11L29.39,26,29.27,26l-.68-.31-.57-.3a4.15,4.15,0,0,1-.42-.24l-.1-.05L27.41,25,27,24.74l-.09-.06a.31.31,0,0,1-.09-.07l-.34-.22c-.25-.17-.48-.35-.76-.57l-.11-.09A16,16,0,0,1,20.21,16c-.83-2.71-.21-6.25,1.65-9.48a1,1,0,0,0-.22-1.26A1,1,0,0,0,21,5ZM10,8a1,1,0,0,0-.67.26,21.54,21.54,0,0,0-3.49,4.19c-4.09,5.95-3.3,15.19-.5,20.85l.18.34,0,.06.13.26a1.3,1.3,0,0,0,.1.18l.18.33.32.55a1.08,1.08,0,0,1,.11.18l.2.31.15.25c0,.08.1.14.13.18.15.24.31.49.48.72l0,0,.06.09c.14.2.28.4.41.56l.57.72.08.09.08.09a8.14,8.14,0,0,0,.54.63L9.2,39l.54.58.18.17.46.46.07.07.16.15.53.48.16.14c.18.16.36.32.55.47l1,.76.51.37.2.14.07.06.72.48c.26.17.53.33.85.52l.17.1.59.33.33.17a5.38,5.38,0,0,0,.51.27l.2.1.74.34.1,0,.86.36.12,0,.7.26.15.06.9.29.13,0,.2.06a5.47,5.47,0,0,0,.75.2A30,30,0,0,0,27,47h0c14.33,0,18.89-11.53,18.94-11.64a1,1,0,0,0-1.74-1C40.53,39.23,33.59,41,25.66,39.21l-.58-.16-.38-.12c-.25-.07-.5-.16-.75-.25l-.12,0c-.22-.07-.44-.16-.63-.23L23,38.32l-.71-.3L22.13,38c-.21-.1-.42-.19-.62-.3l-.19-.09-.46-.24L20,36.89a2,2,0,0,0-.25-.14L19,36.28a1.25,1.25,0,0,1-.2-.14l-.59-.39-.1-.07-.47-.35-.31-.24L17,34.81l-.21-.18c-.19-.15-.36-.31-.54-.46l-.07-.06-.64-.59-.71-.71c-.17-.17-.35-.35-.54-.57l-.58-.67-.42-.52-.18-.22-.43-.59C8.79,24.88,7.77,13.69,10.8,9.59a1,1,0,0,0-.13-1.33A1,1,0,0,0,10,8Z"/></svg>