<svg id="Layer_1" data-name="Layer 1" xmlns="http://www.w3.org/2000/svg" viewBox="0 0 48 48"><defs><style>.cls-1{fill:none;}.cls-2{fill:#fff;}</style></defs><path class="cls-1" d="M42,17.3C42,37.8,24,44,24,44S6,37.8,6,17.3A52.66,52.66,0,0,1,6.4,11a5.87,5.87,0,0,1,4.4-5.1A49.45,49.45,0,0,1,24,4,50.93,50.93,0,0,1,37.3,5.9,6,6,0,0,1,41.7,11C41.8,12.7,42,14.9,42,17.3Z"/><path class="cls-2" d="M24,7A49.68,49.68,0,0,1,36.5,8.8a3,3,0,0,1,2.2,2.6,56.83,56.83,0,0,1,.3,5.9A24.89,24.89,0,0,1,24,40.7,25.15,25.15,0,0,1,9,17.3a56.83,56.83,0,0,1,.3-5.9,2.88,2.88,0,0,1,2.2-2.6A49.68,49.68,0,0,1,24,7m0-3A50.93,50.93,0,0,0,10.7,5.9,5.88,5.88,0,0,0,6.4,11,54.14,54.14,0,0,0,6,17.3C6,37.8,24,44,24,44s18-6.2,18-26.7a52.66,52.66,0,0,0-.4-6.3,5.87,5.87,0,0,0-4.4-5.1A49.45,49.45,0,0,0,24,4Z"/><path class="cls-2" d="M23,28h2v8H23Z"/><path class="cls-2" d="M24,10s-6,5-6,13c0,5.2,3.3,8.5,5,10l1-3,1,3c1.7-1.5,5-4.8,5-10C30,15,24,10,24,10Z"/><path class="cls-2" d="M24,10s-6,5-6,13c0,5.2,3.3,8.5,5,10l1-3Z"/></svg>